<svg width="280" height="200" xmlns="http://www.w3.org/2000/svg" fill="none">
 <mask height="42" width="42" y="99" x="79" maskUnits="userSpaceOnUse" id="mask0_7727_8545">
  <ellipse id="svg_1" fill="#C4C4C4" ry="20.1667" rx="20.1667" cy="120.001" cx="100"/>
 </mask>
 <defs>
  <linearGradient y2="0.33661" x2="0.36947" y1="0.62057" x1="0.04545" id="paint1_linear_7727_8545">
   <stop stop-opacity="0.6" stop-color="#A52714"/>
   <stop stop-opacity="0" stop-color="#A52714" offset="0.66"/>
  </linearGradient>
  <linearGradient y2="0.66354" x2="0.36313" y1="0.8777" x1="0.83876" id="paint2_linear_7727_8545">
   <stop stop-opacity="0.4" stop-color="#055524"/>
   <stop stop-opacity="0" stop-color="#055524" offset="0.33"/>
  </linearGradient>
  <linearGradient y2="0.45416" x2="0.48545" y1="-0.04841" x1="0.3262" id="paint3_linear_7727_8545">
   <stop stop-opacity="0.3" stop-color="#EA6100"/>
   <stop stop-opacity="0" stop-color="#EA6100" offset="0.66"/>
  </linearGradient>
  <linearGradient y2="0.45416" x2="0.48545" y1="-0.04841" x1="0.3262" id="paint4_linear_7727_8545">
   <stop stop-opacity="0.3" stop-color="#EA6100"/>
   <stop stop-opacity="0" stop-color="#EA6100" offset="0.66"/>
  </linearGradient>
  <linearGradient y2="0.33661" x2="0.36947" y1="0.62057" x1="0.04545" id="paint5_linear_7727_8545">
   <stop stop-opacity="0.6" stop-color="#A52714"/>
   <stop stop-opacity="0" stop-color="#A52714" offset="0.66"/>
  </linearGradient>
  <radialGradient gradientTransform="translate(99.1237 110.822) scale(19.2674)" gradientUnits="userSpaceOnUse" r="1" cy="0" cx="0" id="paint6_radial_7727_8545">
   <stop stop-opacity="0.2" stop-color="#3E2723"/>
   <stop stop-opacity="0" stop-color="#3E2723" offset="1"/>
  </radialGradient>
  <linearGradient y2="0.66354" x2="0.36313" y1="0.8777" x1="0.83876" id="paint7_linear_7727_8545">
   <stop stop-opacity="0.4" stop-color="#055524"/>
   <stop stop-opacity="0" stop-color="#055524" offset="0.33"/>
  </linearGradient>
  <radialGradient gradientTransform="translate(83.013 109.12) scale(17.8851)" gradientUnits="userSpaceOnUse" r="1" cy="0" cx="0" id="paint8_radial_7727_8545">
   <stop stop-opacity="0.2" stop-color="#3E2723"/>
   <stop stop-opacity="0" stop-color="#3E2723" offset="1"/>
  </radialGradient>
  <radialGradient gradientTransform="translate(99.9639 120.032) scale(20.1359)" gradientUnits="userSpaceOnUse" r="1" cy="0" cx="0" id="paint9_radial_7727_8545">
   <stop stop-opacity="0.2" stop-color="#263238"/>
   <stop stop-opacity="0" stop-color="#263238" offset="1"/>
  </radialGradient>
 </defs>
 <g>
  <title>Layer 1</title>
  <rect rx="3" id="svg_2" fill="#E5E3E9" height="160" width="240" y="20" x="20.34483" opacity="0.5"/>
  <rect id="svg_3" fill="#C7CBCB" height="20" width="240" y="20" x="20"/>
  <circle id="svg_4" stroke="#E5E3E9" r="19" cy="99.5" cx="80.5"/>
  <circle id="svg_5" fill="#F36464" r="5" cy="30" cx="35"/>
  <circle id="svg_6" fill="white" r="5" cy="30" cx="55"/>
  <circle id="svg_7" fill="white" r="5" cy="30" cx="75"/>
  <circle id="svg_8" fill="#005dff" r="5" cy="30" cx="245"/>
  <rect id="svg_9" fill="#0E0E0E" height="140" width="110" y="46" x="134"/>
  <rect id="svg_10" fill="white" height="140" width="110" y="40" x="140"/>
  <rect id="svg_11" fill="#F2F2F5" rx="7" height="14" width="54" y="46" x="148"/>
  <rect id="svg_12" fill="#005dff" rx="7" height="14" width="54" y="46" x="148"/>
  <rect id="svg_13" fill="#F2F2F5" rx="5" height="10" width="94" y="126" x="148"/>
  <rect id="svg_14" fill="#F2F2F5" rx="5" height="10" width="35" y="147" x="207"/>
  <rect id="svg_15" fill="#F2F2F5" rx="5" height="10" width="35" y="170" x="207"/>
  <rect id="svg_16" fill="#F2F2F5" rx="7" height="14" width="14" y="46" x="228"/>
  <rect id="svg_17" fill="#E5E3E9" rx="8" height="16" width="16" y="93" x="160"/>
  <rect id="svg_18" fill="#F2F2F5" rx="8" height="16" width="16" y="144" x="148"/>
  <rect id="svg_19" fill="#E5E3E9" rx="8" height="16" width="16" y="93" x="214"/>
  <rect id="svg_20" fill="#0E0E0E" height="2" width="55" y="118" x="140"/>
  <rect id="svg_21" fill="#F2F2F5" height="1" width="55" y="119" x="195"/>
  <path id="svg_22" fill="#F2F2F5" d="m156,168c-4.418,0 -8,3.582 -8,8c0,1.457 0.39,2.823 1.07,4l13.86,0c0.68,-1.177 1.07,-2.543 1.07,-4c0,-4.418 -3.582,-8 -8,-8z" clip-rule="evenodd" fill-rule="evenodd"/>
  <rect id="svg_23" fill="#E5E3E9" rx="8" height="16" width="70" y="69" x="160"/>
  <rect id="svg_24" fill="#e5e3e9" rx="20" height="40" width="40" y="60" x="40.34483"/>
  <g id="svg_26" mask="url(#mask0_7727_8545)">
   <path id="svg_27" fill="#DB4437" d="m83.0352,99.834l0,24.75l9.0264,0l7.9383,-13.75l20.1671,0l0,-11l-37.1318,0z"/>
   <path id="svg_28" fill="url(#paint1_linear_7727_8545)" d="m83.0352,99.834l0,24.75l9.0264,0l7.9383,-13.75l20.1671,0l0,-11l-37.1318,0z"/>
   <path id="svg_29" fill-opacity="0.15" fill="#3E2723" d="m92.2799,124.504l-9.1282,-15.654l-0.1329,0.229l9.0612,15.537l0.1999,-0.112z"/>
   <path id="svg_30" fill="#0F9D58" d="m79.8333,140.166l19.1969,0l8.9098,-8.911l0,-6.672l-15.8783,0l-12.2284,-20.974l0,36.557z"/>
   <path id="svg_31" fill="url(#paint2_linear_7727_8545)" d="m79.8333,140.166l19.1969,0l8.9098,-8.911l0,-6.672l-15.8783,0l-12.2284,-20.974l0,36.557z"/>
   <path id="svg_32" fill-opacity="0.15" fill="#263238" d="m107.755,124.888l-0.191,-0.109l-8.7971,15.388l0.264,0l8.7301,-15.271l-0.006,-0.008z"/>
   <path id="svg_33" fill="#FFCD40" d="m99.9999,110.834l7.9401,13.75l-8.9099,15.583l21.1369,0l0,-29.333l-20.1671,0z"/>
   <path id="svg_34" fill="url(#paint3_linear_7727_8545)" d="m99.9999,110.834l7.9401,13.75l-8.9099,15.583l21.1369,0l0,-29.333l-20.1671,0z"/>
   <path id="svg_35" fill="#FFCD40" d="m99.9999,110.834l7.9401,13.75l-8.9099,15.583l21.1369,0l0,-29.333l-20.1671,0z"/>
   <path id="svg_36" fill="url(#paint4_linear_7727_8545)" d="m99.9999,110.834l7.9401,13.75l-8.9099,15.583l21.1369,0l0,-29.333l-20.1671,0z"/>
   <path id="svg_37" fill="#DB4437" d="m83.0352,99.834l0,24.75l9.0264,0l7.9383,-13.75l20.1671,0l0,-11l-37.1318,0z"/>
   <path id="svg_38" fill="url(#paint5_linear_7727_8545)" d="m83.0352,99.834l0,24.75l9.0264,0l7.9383,-13.75l20.1671,0l0,-11l-37.1318,0z"/>
   <path id="svg_39" fill="url(#paint6_radial_7727_8545)" d="m100,110.834l0,4.801l17.967,-4.801l-17.967,0z"/>
   <path id="svg_40" fill="#0F9D58" d="m79.8333,140.166l19.1969,0l8.9098,-15.583l-15.8783,0l-12.2284,-20.974l0,36.557z"/>
   <path id="svg_41" fill="url(#paint7_linear_7727_8545)" d="m79.8333,140.166l19.1969,0l5.5528,-9.167l3.357,-6.416l-15.8783,0l-12.2284,-20.974l0,36.557z"/>
   <path id="svg_42" fill="url(#paint8_radial_7727_8545)" d="m83.0352,109.104l13.1193,13.117l-4.0929,2.363l-9.0264,-15.48z"/>
   <path id="svg_43" fill="url(#paint9_radial_7727_8545)" d="m99.0437,140.142l4.8033,-17.921l4.093,2.363l-8.8963,15.558z"/>
   <path id="svg_44" fill="#F1F1F1" d="m100,129.167c5.063,0 9.167,-4.104 9.167,-9.166c0,-5.063 -4.104,-9.167 -9.167,-9.167c-5.0626,0 -9.1667,4.104 -9.1667,9.167c0,5.062 4.1041,9.166 9.1667,9.166z"/>
   <path id="svg_45" fill="#4285F4" d="m100,127.335c4.05,0 7.333,-3.284 7.333,-7.334c0,-4.05 -3.283,-7.333 -7.333,-7.333c-4.0501,0 -7.3333,3.283 -7.3333,7.333c0,4.05 3.2832,7.334 7.3333,7.334z"/>
   <path id="svg_46" fill-opacity="0.2" fill="#3E2723" d="m100,110.604c-5.0628,0 -9.1667,4.104 -9.1667,9.166l0,0.229c0,-5.061 4.1039,-9.166 9.1667,-9.166l20.167,0l0,-0.229l-20.167,0z"/>
   <path id="svg_47" fill-opacity="0.1" fill="white" d="m107.929,124.583c-1.586,2.735 -4.54,4.583 -7.929,4.583c-3.3917,0 -6.3452,-1.848 -7.931,-4.583l-0.0092,0l-12.2265,-20.974l0,0.23l12.2284,20.973l0.0091,0c1.5859,2.735 4.5403,4.583 7.9312,4.583c3.39,0 6.343,-1.845 7.929,-4.583l0.012,0l0,-0.229l-0.014,0z"/>
   <path id="svg_48" fill="#3E2723" d="m100.229,110.832c-0.039,0 -0.076,0.005 -0.114,0.006c5.009,0.063 9.052,4.137 9.052,9.161c0,5.023 -4.043,9.098 -9.052,9.159c0.038,0 0.075,0.007 0.114,0.007c5.062,0 9.167,-4.104 9.167,-9.166c0,-5.062 -4.105,-9.167 -9.167,-9.167z" opacity="0.1"/>
   <path id="svg_49" fill-opacity="0.2" fill="white" d="m108.021,124.886c0.779,-1.347 1.23,-2.906 1.23,-4.574c0,-0.967 -0.15,-1.897 -0.428,-2.771c0.217,0.785 0.344,1.607 0.344,2.459c0,1.669 -0.451,3.227 -1.231,4.575l0.004,0.009l-8.9098,15.583l0.2658,0l8.728,-15.272l-0.003,-0.009z"/>
   <path id="svg_50" fill-opacity="0.2" fill="white" d="m100,100.063c11.098,0 20.103,8.968 20.165,20.052c0,-0.038 0.002,-0.076 0.002,-0.114c0,-11.138 -9.03,-20.167 -20.167,-20.167c-11.1375,0 -20.1667,9.029 -20.1667,20.167c0,0.038 0.0019,0.076 0.0019,0.114c0.0623,-11.084 9.0667,-20.052 20.1648,-20.052z"/>
   <path id="svg_51" fill-opacity="0.15" fill="#3E2723" d="m100,139.939c11.098,0 20.103,-8.968 20.165,-20.052c0,0.038 0.002,0.076 0.002,0.114c0,11.138 -9.03,20.167 -20.167,20.167c-11.1375,0 -20.1667,-9.029 -20.1667,-20.167c0,-0.038 0.0019,-0.076 0.0019,-0.114c0.0623,11.084 9.0667,20.052 20.1648,20.052z"/>
  </g>
  <g stroke="null">
   <path stroke="null" fill="#005dff" d="m54.24361,90.23633q-0.69526,0.28969 -1.2167,0.46351c-1.39052,0.40557 -2.60722,0.57938 -3.59218,0.57938c-1.56433,0 -2.66516,-0.40557 -3.30248,-1.33258c-0.81114,-1.04289 -1.15877,-3.12867 1.39052,-6.77878c0.57938,-0.86907 1.33258,-1.73815 2.08578,-2.60722l1.56433,1.10083c-0.81114,0.86907 -1.5064,1.73815 -2.08578,2.54929c-1.44846,2.08578 -1.9699,3.88187 -1.44846,4.63507c0.57938,0.7532 2.43341,0.7532 4.80888,0.05794l1.79609,1.33258z" class="a"/>
   <path stroke="null" fill="#005dff" d="m72.49419,70.71111c2.20166,2.95485 -2.14372,8.51693 -6.54703,12.34086l1.62227,5.09857l-2.83898,2.08578l-4.28744,-3.12867q-2.54929,1.62227 -4.9827,2.66516l-0.05794,0l-2.37547,-1.68021l1.62227,-5.09857l-4.28744,-3.12867l1.04289,-3.36042l5.33033,0l1.68021,-5.04063l3.4763,0l1.68021,5.04063l4.57713,0c0,0 -0.86907,1.2167 -1.68021,2.02784l-4.34537,0l-1.9699,-6.02559l-1.9699,6.02559l-6.31528,0l5.09857,3.70805l-1.79609,5.62002q1.85403,-0.86907 3.76599,-2.02784q0.81114,-0.46351 1.62227,-1.04289l0.05794,0l4.92476,3.59218l-1.91196,-5.85177l0.05794,-0.05794q0.7532,-0.63732 1.44846,-1.2167c1.79609,-1.62227 3.36042,-3.30248 4.40331,-4.86682c1.44846,-2.02784 1.9699,-3.82393 1.44846,-4.57713c-0.28969,-0.40557 -0.92701,-0.57938 -1.79609,-0.57938c-0.81114,0 -1.91196,0.17381 -3.01279,0.52144q-1.33258,0.40557 -2.78104,1.10083l-0.57938,-1.79609c4.75094,-2.14372 8.28518,-2.25959 9.6757,-0.34763z" class="a"/>
  </g>
 </g>
</svg>